<svg viewBox="0 0 32 32" fill="none" xmlns="http://www.w3.org/2000/svg">
  <rect width="32" height="32" rx="6" fill="url(#gradient)"/>
  
  {/* Open Book */}
  <g className="open-book">
    {/* Left Page */}
    <path 
      d="M4 10 C4 8 6 8 8 8 C12 8 16 10 18 12 L18 26 C16 24 12 22 8 22 C6 22 4 22 4 24 Z" 
      fill="white" 
      stroke="rgba(255,255,255,0.9)" 
      strokeWidth="0.5"
    />
    
    {/* Right Page */}
    <path 
      d="M28 10 C28 8 26 8 24 8 C20 8 16 10 14 12 L14 26 C16 24 20 22 24 22 C26 22 28 22 28 24 Z" 
      fill="white" 
      stroke="rgba(255,255,255,0.9)" 
      strokeWidth="0.5"
    />
    
    {/* Text Lines - Left */}
    <g className="text-lines opacity-80">
      <line x1="6" y1="14" x2="14" y2="14" stroke="rgba(37,99,235,0.8)" strokeWidth="0.8"/>
      <line x1="6" y1="16" x2="13" y2="16" stroke="rgba(37,99,235,0.8)" strokeWidth="0.8"/>
      <line x1="6" y1="18" x2="15" y2="18" stroke="rgba(37,99,235,0.8)" strokeWidth="0.8"/>
      <line x1="6" y1="20" x2="12" y2="20" stroke="rgba(37,99,235,0.8)" strokeWidth="0.8"/>
    </g>
    
    {/* Text Lines - Right */}
    <g className="text-lines opacity-80">
      <line x1="18" y1="14" x2="26" y2="14" stroke="rgba(37,99,235,0.8)" strokeWidth="0.8"/>
      <line x1="18" y1="16" x2="25" y2="16" stroke="rgba(37,99,235,0.8)" strokeWidth="0.8"/>
      <line x1="18" y1="18" x2="27" y2="18" stroke="rgba(37,99,235,0.8)" strokeWidth="0.8"/>
      <line x1="18" y1="20" x2="24" y2="20" stroke="rgba(37,99,235,0.8)" strokeWidth="0.8"/>
    </g>
  </g>
  
  <defs>
    <linearGradient id="gradient" x1="0%" y1="0%" x2="100%" y2="100%">
      <stop offset="0%" stopColor="#2563EB"/>
      <stop offset="100%" stopColor="#06B6D4"/>
    </linearGradient>
  </defs>
</svg>