<svg xmlns="http://www.w3.org/2000/svg" viewBox="0 0 32 32" width="32" height="32" fill="none">
  <rect width="32" height="32" rx="6" fill="url(#g)"/>
  <g>
    <path d="M2 8 C2 6 4 6 6 6 C10 6 14 8 16 10 L16 26 C14 24 10 22 6 22 C4 22 2 22 2 24 Z" fill="white" stroke="rgba(255,255,255,0.8)" stroke-width="0.5"/>
    <path d="M30 8 C30 6 28 6 26 6 C22 6 18 8 16 10 L16 26 C18 24 22 22 26 22 C28 22 30 22 30 24 Z" fill="white" stroke="rgba(255,255,255,0.8)" stroke-width="0.5"/>
    <g opacity="0.6" stroke="rgba(255,255,255,0.7)" stroke-width="0.5">
      <line x1="4" y1="12" x2="12" y2="12"/>
      <line x1="4" y1="14" x2="11" y2="14"/>
      <line x1="4" y1="16" x2="13" y2="16"/>
      <line x1="4" y1="18" x2="10" y2="18"/>
    </g>
    <g opacity="0.6" stroke="rgba(255,255,255,0.7)" stroke-width="0.5">
      <line x1="20" y1="12" x2="28" y2="12"/>
      <line x1="20" y1="14" x2="27" y2="14"/>
      <line x1="20" y1="16" x2="29" y2="16"/>
      <line x1="20" y1="18" x2="26" y2="18"/>
    </g>
  </g>
  <defs>
    <linearGradient id="g" x1="0" y1="0" x2="32" y2="32" gradientUnits="userSpaceOnUse">
      <stop offset="0" stop-color="#2563EB"/>
      <stop offset="1" stop-color="#06B6D4"/>
    </linearGradient>
  </defs>
</svg>
